<?xml version="1.0" standalone="no"?><!DOCTYPE svg PUBLIC "-//W3C//DTD SVG 1.1//EN" "http://www.w3.org/Graphics/SVG/1.1/DTD/svg11.dtd"><svg t="1594558485792" class="icon" viewBox="0 0 1143 1024" version="1.1" xmlns="http://www.w3.org/2000/svg" p-id="4194" width="53.578125" height="48" xmlns:xlink="http://www.w3.org/1999/xlink"><defs><style type="text/css"></style></defs><path d="M508.189767 273.860465a63.345116 62.392558 0 1 0 126.690233 0 63.345116 62.392558 0 1 0-126.690233 0Z" fill="#E9EBF9" p-id="4195"></path><path d="M571.534884 360.066977a86.206512 86.206512 0 1 1 87.159069-86.206512A86.682791 86.682791 0 0 1 571.534884 360.066977z m0-124.785117a38.578605 38.578605 0 1 0 39.531163 38.578605 39.054884 39.054884 0 0 0-39.531163-38.578605z" fill="#3244E0" p-id="4196"></path><path d="M35.72093 988.27907h1071.627907v-142.883721a36.197209 36.197209 0 0 0-35.72093-35.72093h-1000.186047a36.197209 36.197209 0 0 0-35.72093 35.72093z" fill="#E9EBF9" p-id="4197"></path><path d="M1143.069767 1024H0v-178.604651a71.44186 71.44186 0 0 1 71.44186-71.441861h1000.186047a71.44186 71.44186 0 0 1 71.44186 71.441861zM71.44186 952.55814h1000.186047v-107.162791h-1000.186047z" fill="#3244E0" p-id="4198"></path><path d="M983.992558 774.906047A409.6 409.6 0 0 0 571.534884 368.64a409.6 409.6 0 0 0-412.933954 406.266047" fill="#E9EBF9" p-id="4199"></path><path d="M1020.189767 774.906047h-71.44186a377.213023 377.213023 0 0 0-754.426047 0h-71.44186a448.654884 448.654884 0 0 1 897.309767 0zM135.263256 303.389767a24.290233 24.290233 0 0 1-19.051163-9.525581 23.813953 23.813953 0 0 1 5.23907-33.339535c29.529302-21.908837 44.770233-43.341395 44.770232-64.297674 0-11.430698-8.096744-20.003721-21.432558-33.339535a88.111628 88.111628 0 0 1-33.339535-62.868837A135.263256 135.263256 0 0 1 150.980465 7.620465a24.290233 24.290233 0 0 1 33.815814 0 24.290233 24.290233 0 0 1 0 33.815814 87.635349 87.635349 0 0 0-25.71907 58.582326c0 9.049302 7.620465 17.146047 19.527442 29.529302a95.255814 95.255814 0 0 1 35.244651 66.67907 132.405581 132.405581 0 0 1-64.297674 102.876279 25.242791 25.242791 0 0 1-14.288372 4.286511zM262.429767 303.389767a23.813953 23.813953 0 0 1-14.288372-42.865116c30.005581-21.908837 44.770233-43.341395 44.770233-64.297674 0-11.430698-7.620465-20.003721-20.956279-33.339535A88.111628 88.111628 0 0 1 238.139535 100.018605 135.263256 135.263256 0 0 1 278.146977 7.620465a23.813953 23.813953 0 0 1 33.339535 0 23.813953 23.813953 0 0 1 0 33.815814A86.682791 86.682791 0 0 0 285.767442 100.018605c0 9.049302 7.620465 17.146047 19.527442 29.529302a92.39814 92.39814 0 0 1 34.768372 66.67907A131.453023 131.453023 0 0 1 276.24186 299.103256a23.813953 23.813953 0 0 1-13.812093 4.286511zM897.309767 303.389767a24.290233 24.290233 0 0 1-19.051162-9.525581 23.813953 23.813953 0 0 1 5.239069-33.339535c29.529302-21.908837 44.770233-43.341395 44.770233-64.297674 0-11.430698-8.096744-20.003721-21.432558-33.339535a88.111628 88.111628 0 0 1-33.339535-62.868837 135.263256 135.263256 0 0 1 39.531163-92.39814 24.290233 24.290233 0 0 1 33.815814 0 24.290233 24.290233 0 0 1 0 33.815814 87.635349 87.635349 0 0 0-27.147907 60.011163c0 9.049302 7.620465 17.146047 19.527442 29.529302a95.255814 95.255814 0 0 1 35.244651 66.67907 132.405581 132.405581 0 0 1-64.297675 102.876279 25.242791 25.242791 0 0 1-12.859535 2.857674zM1024.476279 303.389767a23.813953 23.813953 0 0 1-14.288372-42.865116c30.005581-21.908837 44.770233-43.341395 44.770233-64.297674 0-11.430698-7.620465-20.003721-20.95628-33.339535A88.111628 88.111628 0 0 1 1000.186047 100.018605a135.263256 135.263256 0 0 1 40.007441-92.39814 23.813953 23.813953 0 0 1 33.339535 0 23.813953 23.813953 0 0 1 0 33.815814A86.682791 86.682791 0 0 0 1047.813953 100.018605c0 9.049302 7.620465 17.146047 19.527442 29.529302a92.39814 92.39814 0 0 1 34.768372 66.67907 131.453023 131.453023 0 0 1-63.821395 102.876279 23.813953 23.813953 0 0 1-13.812093 4.286511z" fill="#3244E0" p-id="4200"></path></svg>